<svg xmlns="http://www.w3.org/2000/svg" xmlns:xlink="http://www.w3.org/1999/xlink" width="500" zoomAndPan="magnify" viewBox="0 0 375 374.999991" height="500" preserveAspectRatio="xMidYMid meet" version="1.0"><defs><g/><clipPath id="7963eaaefd"><path d="M 28.988281 41.40625 L 328.988281 41.40625 L 328.988281 341.40625 L 28.988281 341.40625 Z M 28.988281 41.40625 " clip-rule="nonzero"/></clipPath><clipPath id="6c132431d4"><path d="M 178.988281 41.40625 C 96.144531 41.40625 28.988281 108.5625 28.988281 191.40625 C 28.988281 274.25 96.144531 341.40625 178.988281 341.40625 C 261.832031 341.40625 328.988281 274.25 328.988281 191.40625 C 328.988281 108.5625 261.832031 41.40625 178.988281 41.40625 Z M 178.988281 41.40625 " clip-rule="nonzero"/></clipPath><clipPath id="960ee2c43a"><path d="M 61.636719 239.625 L 93.394531 239.625 L 93.394531 328.125 L 61.636719 328.125 Z M 61.636719 239.625 " clip-rule="nonzero"/></clipPath><clipPath id="c7b1fec8e1"><path d="M 288.726562 187.085938 L 342.632812 187.085938 L 342.632812 212.707031 L 288.726562 212.707031 Z M 288.726562 187.085938 " clip-rule="nonzero"/></clipPath></defs><g clip-path="url(#7963eaaefd)"><g clip-path="url(#6c132431d4)"><path fill="#0a3161" d="M 28.988281 41.40625 L 328.988281 41.40625 L 328.988281 341.40625 L 28.988281 341.40625 Z M 28.988281 41.40625 " fill-opacity="1" fill-rule="nonzero"/></g></g><g fill="#ffffff" fill-opacity="1"><g transform="translate(81.8239, 202.021661)"><g><path d="M 62.8125 -109.390625 C 78.757812 -109.390625 91.367188 -105.40625 100.640625 -97.4375 C 109.910156 -89.46875 114.546875 -78.082031 114.546875 -63.28125 L 81.578125 -63.28125 C 81.578125 -69.53125 79.929688 -74.476562 76.640625 -78.125 C 73.359375 -81.78125 68.695312 -83.609375 62.65625 -83.609375 C 55.675781 -83.609375 50.546875 -81.414062 47.265625 -77.03125 C 43.984375 -72.65625 42.34375 -66.5625 42.34375 -58.75 L 42.34375 -48.75 C 42.34375 -41.039062 43.984375 -34.972656 47.265625 -30.546875 C 50.546875 -26.117188 55.570312 -23.90625 62.34375 -23.90625 C 69.007812 -23.90625 74.0625 -25.625 77.5 -29.0625 C 80.945312 -32.5 82.671875 -37.34375 82.671875 -43.59375 L 114.546875 -43.59375 C 114.546875 -28.90625 110.039062 -17.65625 101.03125 -9.84375 C 92.019531 -2.03125 79.28125 1.875 62.8125 1.875 C 44.476562 1.875 30.597656 -2.8125 21.171875 -12.1875 C 11.742188 -21.5625 7.03125 -35.414062 7.03125 -53.75 C 7.03125 -72.09375 11.742188 -85.953125 21.171875 -95.328125 C 30.597656 -104.703125 44.476562 -109.390625 62.8125 -109.390625 Z M 62.8125 -109.390625 "/></g></g></g><g clip-path="url(#960ee2c43a)"><path fill="#ffffff" d="M 61.636719 239.625 L 93.394531 239.625 L 93.394531 328.078125 L 61.636719 328.078125 Z M 61.636719 239.625 " fill-opacity="1" fill-rule="nonzero"/></g><g clip-path="url(#c7b1fec8e1)"><path fill="#ffffff" d="M 288.726562 187.085938 L 342.671875 187.085938 L 342.671875 212.707031 L 288.726562 212.707031 Z M 288.726562 187.085938 " fill-opacity="1" fill-rule="nonzero"/></g><path stroke-linecap="butt" transform="matrix(0.75, -0.000000000000000372, 0.000000000000000372, 0.75, 61.63484, 84.993011)" fill="none" stroke-linejoin="miter" d="M 0.00250546 1.998902 L 65.184801 1.998902 " stroke="#ffffff" stroke-width="4" stroke-opacity="1" stroke-miterlimit="4"/><g fill="#ffffff" fill-opacity="1"><g transform="translate(129.859266, 268.30425)"><g><path d="M 0.125 -10.90625 L 0.125 -13.625 L 9.71875 -13.625 L 9.71875 -10.90625 L 6.46875 -10.90625 L 6.46875 0 L 3.375 0 L 3.375 -10.90625 Z M 0.125 -10.90625 "/></g></g></g><g fill="#ffffff" fill-opacity="1"><g transform="translate(140.774259, 268.30425)"><g><path d="M 4.09375 -5.46875 L 4.09375 0 L 0.984375 0 L 0.984375 -13.625 L 4.09375 -13.625 L 4.09375 -8.1875 L 8.484375 -8.1875 L 8.484375 -13.625 L 11.59375 -13.625 L 11.59375 0 L 8.484375 0 L 8.484375 -5.46875 Z M 4.09375 -5.46875 "/></g></g></g><g fill="#ffffff" fill-opacity="1"><g transform="translate(154.430189, 268.30425)"><g><path d="M 0.375 -6.828125 C 0.375 -8.796875 1.046875 -10.460938 2.390625 -11.828125 C 3.734375 -13.191406 5.351562 -13.875 7.25 -13.875 C 9.15625 -13.875 10.773438 -13.191406 12.109375 -11.828125 C 13.441406 -10.472656 14.109375 -8.804688 14.109375 -6.828125 C 14.109375 -4.828125 13.453125 -3.144531 12.140625 -1.78125 C 10.828125 -0.425781 9.195312 0.25 7.25 0.25 C 5.257812 0.25 3.613281 -0.421875 2.3125 -1.765625 C 1.019531 -3.117188 0.375 -4.804688 0.375 -6.828125 Z M 3.734375 -6.828125 C 3.734375 -6.109375 3.84375 -5.453125 4.0625 -4.859375 C 4.28125 -4.273438 4.664062 -3.78125 5.21875 -3.375 C 5.769531 -2.96875 6.445312 -2.765625 7.25 -2.765625 C 8.40625 -2.765625 9.273438 -3.160156 9.859375 -3.953125 C 10.453125 -4.742188 10.75 -5.703125 10.75 -6.828125 C 10.75 -7.929688 10.445312 -8.882812 9.84375 -9.6875 C 9.25 -10.488281 8.382812 -10.890625 7.25 -10.890625 C 6.125 -10.890625 5.253906 -10.488281 4.640625 -9.6875 C 4.035156 -8.882812 3.734375 -7.929688 3.734375 -6.828125 Z M 3.734375 -6.828125 "/></g></g></g><g fill="#ffffff" fill-opacity="1"><g transform="translate(169.984972, 268.30425)"><g><path d="M 12.25 0 L 11.609375 -8.078125 L 11.53125 -8.078125 L 8.734375 -0.078125 L 6.890625 -0.078125 L 4.09375 -8.078125 L 4.015625 -8.078125 L 3.375 0 L 0.265625 0 L 1.484375 -13.625 L 4.796875 -13.625 L 7.8125 -5.765625 L 10.828125 -13.625 L 14.140625 -13.625 L 15.359375 0 Z M 12.25 0 "/></g></g></g><g fill="#ffffff" fill-opacity="1"><g transform="translate(186.679057, 268.30425)"><g><path d="M 0.984375 -13.625 L 5.96875 -13.625 C 7.351562 -13.625 8.472656 -13.265625 9.328125 -12.546875 C 10.191406 -11.835938 10.625 -10.796875 10.625 -9.421875 C 10.625 -8.054688 10.1875 -6.984375 9.3125 -6.203125 C 8.445312 -5.429688 7.332031 -5.046875 5.96875 -5.046875 L 4.09375 -5.046875 L 4.09375 0 L 0.984375 0 Z M 4.09375 -7.53125 L 4.96875 -7.53125 C 5.664062 -7.53125 6.234375 -7.671875 6.671875 -7.953125 C 7.117188 -8.234375 7.34375 -8.691406 7.34375 -9.328125 C 7.34375 -9.984375 7.117188 -10.445312 6.671875 -10.71875 C 6.234375 -11 5.664062 -11.140625 4.96875 -11.140625 L 4.09375 -11.140625 Z M 4.09375 -7.53125 "/></g></g></g><g fill="#ffffff" fill-opacity="1"><g transform="translate(198.749867, 268.30425)"><g><path d="M 6.015625 -13.875 C 6.753906 -13.875 7.472656 -13.765625 8.171875 -13.546875 C 8.878906 -13.335938 9.40625 -13.128906 9.75 -12.921875 L 10.234375 -12.578125 L 8.984375 -10.109375 C 8.878906 -10.171875 8.738281 -10.253906 8.5625 -10.359375 C 8.394531 -10.460938 8.066406 -10.601562 7.578125 -10.78125 C 7.097656 -10.957031 6.644531 -11.046875 6.21875 -11.046875 C 5.707031 -11.046875 5.3125 -10.9375 5.03125 -10.71875 C 4.75 -10.5 4.609375 -10.203125 4.609375 -9.828125 C 4.609375 -9.640625 4.671875 -9.460938 4.796875 -9.296875 C 4.929688 -9.140625 5.160156 -8.96875 5.484375 -8.78125 C 5.804688 -8.601562 6.085938 -8.457031 6.328125 -8.34375 C 6.566406 -8.238281 6.941406 -8.078125 7.453125 -7.859375 C 8.328125 -7.484375 9.078125 -6.972656 9.703125 -6.328125 C 10.328125 -5.691406 10.640625 -4.960938 10.640625 -4.140625 C 10.640625 -3.359375 10.5 -2.675781 10.21875 -2.09375 C 9.9375 -1.507812 9.550781 -1.050781 9.0625 -0.71875 C 8.570312 -0.394531 8.03125 -0.15625 7.4375 0 C 6.84375 0.164062 6.195312 0.25 5.5 0.25 C 4.90625 0.25 4.320312 0.1875 3.75 0.0625 C 3.175781 -0.0507812 2.695312 -0.195312 2.3125 -0.375 C 1.925781 -0.5625 1.578125 -0.742188 1.265625 -0.921875 C 0.960938 -1.097656 0.738281 -1.25 0.59375 -1.375 L 0.375 -1.546875 L 1.9375 -4.15625 C 2.0625 -4.050781 2.238281 -3.910156 2.46875 -3.734375 C 2.707031 -3.566406 3.117188 -3.335938 3.703125 -3.046875 C 4.296875 -2.765625 4.816406 -2.625 5.265625 -2.625 C 6.578125 -2.625 7.234375 -3.070312 7.234375 -3.96875 C 7.234375 -4.15625 7.1875 -4.328125 7.09375 -4.484375 C 7 -4.640625 6.832031 -4.796875 6.59375 -4.953125 C 6.363281 -5.117188 6.15625 -5.25 5.96875 -5.34375 C 5.789062 -5.4375 5.492188 -5.578125 5.078125 -5.765625 C 4.660156 -5.960938 4.351562 -6.109375 4.15625 -6.203125 C 3.332031 -6.617188 2.691406 -7.128906 2.234375 -7.734375 C 1.785156 -8.347656 1.5625 -9.007812 1.5625 -9.71875 C 1.5625 -10.9375 2.015625 -11.929688 2.921875 -12.703125 C 3.828125 -13.484375 4.859375 -13.875 6.015625 -13.875 Z M 6.015625 -13.875 "/></g></g></g><g fill="#ffffff" fill-opacity="1"><g transform="translate(210.919748, 268.30425)"><g><path d="M 0.375 -6.828125 C 0.375 -8.796875 1.046875 -10.460938 2.390625 -11.828125 C 3.734375 -13.191406 5.351562 -13.875 7.25 -13.875 C 9.15625 -13.875 10.773438 -13.191406 12.109375 -11.828125 C 13.441406 -10.472656 14.109375 -8.804688 14.109375 -6.828125 C 14.109375 -4.828125 13.453125 -3.144531 12.140625 -1.78125 C 10.828125 -0.425781 9.195312 0.25 7.25 0.25 C 5.257812 0.25 3.613281 -0.421875 2.3125 -1.765625 C 1.019531 -3.117188 0.375 -4.804688 0.375 -6.828125 Z M 3.734375 -6.828125 C 3.734375 -6.109375 3.84375 -5.453125 4.0625 -4.859375 C 4.28125 -4.273438 4.664062 -3.78125 5.21875 -3.375 C 5.769531 -2.96875 6.445312 -2.765625 7.25 -2.765625 C 8.40625 -2.765625 9.273438 -3.160156 9.859375 -3.953125 C 10.453125 -4.742188 10.75 -5.703125 10.75 -6.828125 C 10.75 -7.929688 10.445312 -8.882812 9.84375 -9.6875 C 9.25 -10.488281 8.382812 -10.890625 7.25 -10.890625 C 6.125 -10.890625 5.253906 -10.488281 4.640625 -9.6875 C 4.035156 -8.882812 3.734375 -7.929688 3.734375 -6.828125 Z M 3.734375 -6.828125 "/></g></g></g><g fill="#ffffff" fill-opacity="1"><g transform="translate(226.474528, 268.30425)"><g><path d="M 4.09375 -8.453125 L 4.09375 0 L 0.984375 0 L 0.984375 -13.625 L 4.09375 -13.625 L 9.515625 -5.171875 L 9.546875 -5.171875 L 9.546875 -13.625 L 12.65625 -13.625 L 12.65625 0 L 9.546875 0 L 4.125 -8.453125 Z M 4.09375 -8.453125 "/></g></g></g><g fill="#ffffff" fill-opacity="1"><g transform="translate(137.120866, 291.075832)"><g><path d="M 2.5 0.078125 C 2.132812 0.078125 1.8125 0.03125 1.53125 -0.0625 C 1.25 -0.164062 1.007812 -0.296875 0.8125 -0.453125 C 0.625 -0.609375 0.484375 -0.78125 0.390625 -0.96875 L 0.765625 -1.421875 L 0.859375 -1.421875 C 1.210938 -0.828125 1.757812 -0.53125 2.5 -0.53125 C 2.925781 -0.53125 3.242188 -0.617188 3.453125 -0.796875 C 3.660156 -0.972656 3.765625 -1.222656 3.765625 -1.546875 C 3.765625 -1.734375 3.726562 -1.890625 3.65625 -2.015625 C 3.59375 -2.148438 3.484375 -2.265625 3.328125 -2.359375 C 3.171875 -2.453125 2.953125 -2.53125 2.671875 -2.59375 L 2.015625 -2.765625 C 1.515625 -2.878906 1.144531 -3.066406 0.90625 -3.328125 C 0.675781 -3.585938 0.5625 -3.921875 0.5625 -4.328125 C 0.5625 -4.609375 0.632812 -4.859375 0.78125 -5.078125 C 0.925781 -5.304688 1.140625 -5.484375 1.421875 -5.609375 C 1.703125 -5.734375 2.035156 -5.796875 2.421875 -5.796875 C 2.847656 -5.796875 3.207031 -5.734375 3.5 -5.609375 C 3.800781 -5.492188 4.039062 -5.3125 4.21875 -5.0625 L 3.890625 -4.625 L 3.796875 -4.625 C 3.628906 -4.820312 3.429688 -4.96875 3.203125 -5.0625 C 2.984375 -5.15625 2.722656 -5.203125 2.421875 -5.203125 C 2.023438 -5.203125 1.722656 -5.125 1.515625 -4.96875 C 1.316406 -4.820312 1.21875 -4.613281 1.21875 -4.34375 C 1.21875 -4.082031 1.289062 -3.875 1.4375 -3.71875 C 1.59375 -3.570312 1.847656 -3.457031 2.203125 -3.375 L 2.875 -3.203125 C 3.4375 -3.078125 3.835938 -2.878906 4.078125 -2.609375 C 4.328125 -2.335938 4.453125 -1.992188 4.453125 -1.578125 C 4.453125 -1.253906 4.378906 -0.96875 4.234375 -0.71875 C 4.097656 -0.46875 3.878906 -0.269531 3.578125 -0.125 C 3.285156 0.0078125 2.925781 0.078125 2.5 0.078125 Z M 2.5 0.078125 "/></g></g></g><g fill="#ffffff" fill-opacity="1"><g transform="translate(146.743375, 291.075832)"><g><path d="M 3.140625 0.078125 C 2.640625 0.078125 2.195312 -0.0234375 1.8125 -0.234375 C 1.425781 -0.453125 1.125 -0.78125 0.90625 -1.21875 C 0.6875 -1.65625 0.578125 -2.203125 0.578125 -2.859375 C 0.578125 -3.515625 0.6875 -4.0625 0.90625 -4.5 C 1.125 -4.9375 1.425781 -5.257812 1.8125 -5.46875 C 2.195312 -5.6875 2.640625 -5.796875 3.140625 -5.796875 C 3.628906 -5.796875 4.066406 -5.6875 4.453125 -5.46875 C 4.835938 -5.257812 5.140625 -4.9375 5.359375 -4.5 C 5.585938 -4.0625 5.703125 -3.515625 5.703125 -2.859375 C 5.703125 -2.203125 5.585938 -1.65625 5.359375 -1.21875 C 5.140625 -0.78125 4.835938 -0.453125 4.453125 -0.234375 C 4.066406 -0.0234375 3.628906 0.078125 3.140625 0.078125 Z M 3.140625 -0.546875 C 3.734375 -0.546875 4.1875 -0.726562 4.5 -1.09375 C 4.820312 -1.46875 4.984375 -2.054688 4.984375 -2.859375 C 4.984375 -3.660156 4.820312 -4.242188 4.5 -4.609375 C 4.1875 -4.984375 3.734375 -5.171875 3.140625 -5.171875 C 1.910156 -5.171875 1.296875 -4.398438 1.296875 -2.859375 C 1.296875 -1.316406 1.910156 -0.546875 3.140625 -0.546875 Z M 3.140625 -0.546875 "/></g></g></g><g fill="#ffffff" fill-opacity="1"><g transform="translate(157.736974, 291.075832)"><g><path d="M 1.53125 -5.71875 L 1.53125 -0.5625 L 4.28125 -0.5625 L 4.28125 0 L 0.859375 0 L 0.859375 -5.71875 Z M 1.53125 -5.71875 "/></g></g></g><g fill="#ffffff" fill-opacity="1"><g transform="translate(166.992295, 291.075832)"><g><path d="M 2.953125 0.078125 C 2.242188 0.078125 1.707031 -0.0976562 1.34375 -0.453125 C 0.988281 -0.804688 0.8125 -1.332031 0.8125 -2.03125 L 0.8125 -5.71875 L 1.484375 -5.71875 L 1.484375 -2.046875 C 1.484375 -1.546875 1.601562 -1.171875 1.84375 -0.921875 C 2.082031 -0.671875 2.453125 -0.546875 2.953125 -0.546875 C 3.921875 -0.546875 4.40625 -1.046875 4.40625 -2.046875 L 4.40625 -5.71875 L 5.078125 -5.71875 L 5.078125 -2.03125 C 5.078125 -1.332031 4.894531 -0.804688 4.53125 -0.453125 C 4.175781 -0.0976562 3.648438 0.078125 2.953125 0.078125 Z M 2.953125 0.078125 "/></g></g></g><g fill="#ffffff" fill-opacity="1"><g transform="translate(177.606989, 291.075832)"><g><path d="M 4.453125 -5.71875 L 4.453125 -5.140625 L 2.671875 -5.140625 L 2.671875 0 L 2 0 L 2 -5.140625 L 0.21875 -5.140625 L 0.21875 -5.71875 Z M 4.453125 -5.71875 "/></g></g></g><g fill="#ffffff" fill-opacity="1"><g transform="translate(186.999031, 291.075832)"><g><path d="M 1.53125 0 L 0.859375 0 L 0.859375 -5.71875 L 1.53125 -5.71875 Z M 1.53125 0 "/></g></g></g><g fill="#ffffff" fill-opacity="1"><g transform="translate(194.129361, 291.075832)"><g><path d="M 3.140625 0.078125 C 2.640625 0.078125 2.195312 -0.0234375 1.8125 -0.234375 C 1.425781 -0.453125 1.125 -0.78125 0.90625 -1.21875 C 0.6875 -1.65625 0.578125 -2.203125 0.578125 -2.859375 C 0.578125 -3.515625 0.6875 -4.0625 0.90625 -4.5 C 1.125 -4.9375 1.425781 -5.257812 1.8125 -5.46875 C 2.195312 -5.6875 2.640625 -5.796875 3.140625 -5.796875 C 3.628906 -5.796875 4.066406 -5.6875 4.453125 -5.46875 C 4.835938 -5.257812 5.140625 -4.9375 5.359375 -4.5 C 5.585938 -4.0625 5.703125 -3.515625 5.703125 -2.859375 C 5.703125 -2.203125 5.585938 -1.65625 5.359375 -1.21875 C 5.140625 -0.78125 4.835938 -0.453125 4.453125 -0.234375 C 4.066406 -0.0234375 3.628906 0.078125 3.140625 0.078125 Z M 3.140625 -0.546875 C 3.734375 -0.546875 4.1875 -0.726562 4.5 -1.09375 C 4.820312 -1.46875 4.984375 -2.054688 4.984375 -2.859375 C 4.984375 -3.660156 4.820312 -4.242188 4.5 -4.609375 C 4.1875 -4.984375 3.734375 -5.171875 3.140625 -5.171875 C 1.910156 -5.171875 1.296875 -4.398438 1.296875 -2.859375 C 1.296875 -1.316406 1.910156 -0.546875 3.140625 -0.546875 Z M 3.140625 -0.546875 "/></g></g></g><g fill="#ffffff" fill-opacity="1"><g transform="translate(205.122957, 291.075832)"><g><path d="M 1.515625 0 L 0.859375 0 L 0.859375 -5.71875 L 1.6875 -5.71875 L 4.46875 -1.34375 L 4.578125 -1.359375 L 4.578125 -5.71875 L 5.21875 -5.71875 L 5.21875 0 L 4.515625 0 L 1.625 -4.671875 L 1.515625 -4.65625 Z M 1.515625 0 "/></g></g></g><g fill="#ffffff" fill-opacity="1"><g transform="translate(215.940772, 291.075832)"><g><path d="M 2.5 0.078125 C 2.132812 0.078125 1.8125 0.03125 1.53125 -0.0625 C 1.25 -0.164062 1.007812 -0.296875 0.8125 -0.453125 C 0.625 -0.609375 0.484375 -0.78125 0.390625 -0.96875 L 0.765625 -1.421875 L 0.859375 -1.421875 C 1.210938 -0.828125 1.757812 -0.53125 2.5 -0.53125 C 2.925781 -0.53125 3.242188 -0.617188 3.453125 -0.796875 C 3.660156 -0.972656 3.765625 -1.222656 3.765625 -1.546875 C 3.765625 -1.734375 3.726562 -1.890625 3.65625 -2.015625 C 3.59375 -2.148438 3.484375 -2.265625 3.328125 -2.359375 C 3.171875 -2.453125 2.953125 -2.53125 2.671875 -2.59375 L 2.015625 -2.765625 C 1.515625 -2.878906 1.144531 -3.066406 0.90625 -3.328125 C 0.675781 -3.585938 0.5625 -3.921875 0.5625 -4.328125 C 0.5625 -4.609375 0.632812 -4.859375 0.78125 -5.078125 C 0.925781 -5.304688 1.140625 -5.484375 1.421875 -5.609375 C 1.703125 -5.734375 2.035156 -5.796875 2.421875 -5.796875 C 2.847656 -5.796875 3.207031 -5.734375 3.5 -5.609375 C 3.800781 -5.492188 4.039062 -5.3125 4.21875 -5.0625 L 3.890625 -4.625 L 3.796875 -4.625 C 3.628906 -4.820312 3.429688 -4.96875 3.203125 -5.0625 C 2.984375 -5.15625 2.722656 -5.203125 2.421875 -5.203125 C 2.023438 -5.203125 1.722656 -5.125 1.515625 -4.96875 C 1.316406 -4.820312 1.21875 -4.613281 1.21875 -4.34375 C 1.21875 -4.082031 1.289062 -3.875 1.4375 -3.71875 C 1.59375 -3.570312 1.847656 -3.457031 2.203125 -3.375 L 2.875 -3.203125 C 3.4375 -3.078125 3.835938 -2.878906 4.078125 -2.609375 C 4.328125 -2.335938 4.453125 -1.992188 4.453125 -1.578125 C 4.453125 -1.253906 4.378906 -0.96875 4.234375 -0.71875 C 4.097656 -0.46875 3.878906 -0.269531 3.578125 -0.125 C 3.285156 0.0078125 2.925781 0.078125 2.5 0.078125 Z M 2.5 0.078125 "/></g></g></g><g fill="#ffffff" fill-opacity="1"><g transform="translate(189.320324, 233.585735)"><g><path d="M 66.21875 -72.140625 L 66.21875 0 L 35.078125 0 L 35.078125 -72.140625 L 3.234375 -72.140625 L 3.234375 -96.9375 L 97.921875 -96.9375 L 97.921875 -72.140625 Z M 66.21875 -72.140625 "/></g></g></g><g fill="#ffffff" fill-opacity="1"><g transform="translate(220.088867, 117.993008)"><g><path d="M 20.40625 0 L 8.015625 0 L 29.1875 -50.3125 L 28.9375 -51.1875 L 1.6875 -51.1875 L 1.6875 -61.390625 L 41.484375 -61.390625 L 41.484375 -50.640625 Z M 20.40625 0 "/></g></g></g></svg>