<?xml version="1.0" encoding="UTF-8"?>
<svg id="Layer_1" xmlns="http://www.w3.org/2000/svg" version="1.1" viewBox="0 0 180 32.8">
  <!-- Generator: Adobe Illustrator 29.2.1, SVG Export Plug-In . SVG Version: 2.1.0 Build 116)  -->
  <defs>
    <style>
      .st0 {
        fill: #fff;
      }

      .st1 {
        fill: #22d3ed;
      }
    </style>
  </defs>
  <g>
    <g>
      <polygon class="st1" points="6.5 8.1 4.6 9.2 2.7 8.1 4.6 7 6.5 8.1"/>
      <polygon class="st1" points="13.9 3.8 12.1 4.9 10.2 3.8 12.1 2.7 13.9 3.8"/>
      <polygon class="st1" points="21.5 8.2 19.6 9.2 17.7 8.1 19.6 7.1 21.5 8.2"/>
      <polygon class="st1" points="14 12.5 12.1 13.5 10.3 12.5 12.1 11.4 14 12.5"/>
      <polygon class="st1" points="17.7 10.3 15.9 11.4 14 10.3 15.9 9.2 17.7 10.3"/>
      <polygon class="st1" points="10.2 6 8.3 7 6.5 5.9 8.3 4.9 10.2 6"/>
      <polygon class="st1" points="17.7 6 15.8 7.1 14 6 15.8 4.9 17.7 6"/>
      <polygon class="st1" points="14 8.1 12.1 9.2 10.2 8.1 12.1 7 14 8.1"/>
      <polygon class="st1" points="10.2 10.3 8.4 11.4 6.5 10.3 8.4 9.2 10.2 10.3"/>
    </g>
    <polygon class="st1" points="9.6 18 9.6 18 7.7 16.9 5.9 15.8 5.9 18 7.7 19.1 9.6 20.2 9.6 22.3 7.7 21.3 5.9 20.2 4 19.1 4 18.1 4 16.9 4 14.8 4 14.5 4 12.6 5.9 13.7 7.7 14.7 9.6 15.8 9.6 15.8 11.5 16.9 11.5 14.7 9.6 13.6 7.7 12.6 5.9 11.5 5.9 11.5 4 10.4 2.1 9.3 2.1 20.2 4 21.3 5.9 22.4 9.6 24.5 11.5 25.6 11.5 19.1 9.6 18"/>
    <path class="st1" d="M20.5,10.4l-1.9,1.1h0l-1.9,1.1-1.9,1.1-1.9,1.1v10.9l1.9-1.1,3.7-2.2,1.9-1.1,1.9-1.1v-10.9l-1.9,1.1h0ZM16.7,14.7l1.9-1.1,1.9-1.1v2.2l-1.9,1.1-1.3.7h0l-2.4,1.4v-2.2l1.9-1.1h-.1ZM20.5,19.1l-1.9,1.1-1.9,1.1-1.9,1.1v-2.2l1.9-1.1h0l1.9-1.1,1.9-1.1v2.2Z"/>
  </g>
  <g>
    <path class="st0" d="M49.5,14.6c0,.4-.7,2.6-.7,4.7v4.3c-1.9.9-5.3,2.2-8.9,2.2-5.9,0-10.7-4.6-10.7-11.3s4.8-11.3,11.1-11.3,5,.6,7.7,1.7v5.5h-.3c-.9-1.3-3.8-5.7-7.3-5.8-3.5,0-5.9,4-5.9,9.9s2.4,9.9,6.1,10c1.2,0,2.3-.4,3.3-.9v-4.3c0-2.1-1.7-4.3-1.9-4.7h0c0-.1,7.3-.1,7.3-.1h0c0,.1.2.1.2.1Z"/>
    <path class="st0" d="M62.2,10.1l-.7,4.8h0c-1.3-1.4-3.5-2.4-5.6-.9v6.8c0,2.1.7,4.3.8,4.7h0c0,.1-6,.1-6,.1h0c0-.5.8-2.7.8-4.8v-5.7c0-2.1-.7-4.3-.8-4.7h0c0-.1,5.2-.1,5.2-.1v3c1.1-2.3,3.2-4,6.4-3v-.2Z"/>
    <path class="st0" d="M62.2,17.8c0-5.3,3.7-7.8,8-7.8s8,2.6,8,7.8-3.8,8-8,8-8-2.7-8-8ZM73.3,17.8c0-3.3-.9-6.6-3.1-6.6s-3,3.4-3,6.6.8,6.8,3,6.8,3.1-3.5,3.1-6.8Z"/>
    <path class="st0" d="M94.8,25.4h0c0,.1-4.2.1-4.2.1-.3-.6-.6-1.6-.8-2.7-1.1,1.7-2.6,3-4.9,3s-5-1.6-5-5.1v-5.7c0-2.1-.7-4.3-.8-4.7h0c0-.1,5.3-.1,5.3-.1v9.9c0,2.1,1.2,2.9,2.6,2.9s1.9-.4,2.8-.9v-7c0-2.1-.7-4.3-.8-4.7h0c0-.1,5.2-.1,5.2-.1v10.6c0,2.1.7,4.3.8,4.7l-.2-.2Z"/>
    <path class="st0" d="M111.5,17.7c0,5.6-3.3,8.2-6.4,8.2s-2.9-.5-4.1-1.9v2.9c0,2.1.7,4.3.8,4.7h0c0,.1-6,.1-6,.1h0c0-.5.8-2.7.8-4.8v-11.7c0-2.1-.8-4.2-.9-4.6h0l.8-.2,4.6-.5v2.5c1-1.5,2.7-2.3,4.5-2.3,3.2,0,6,2.6,6,7.7h-.1ZM106.6,17.7c0-2.8-.9-5.3-3.2-5.3s-1.7.4-2.4,1.1v9.2c.7.5,1.4.8,2.2.8,2.5,0,3.4-2.8,3.4-5.8Z"/>
    <path class="st0" d="M127.8,17.7c0,5.6-3.3,8.2-6.5,8.2s-2.7-.4-4-1.7l-4.5,1.6V8.1c0-2.1-.8-4.2-.9-4.6h0c0,0,5.4-.7,5.4-.7v9.6c1-1.5,2.7-2.3,4.5-2.3,3.2,0,6,2.6,6,7.7h0ZM123,17.7c0-2.7-.9-5.2-3.2-5.2s-1.7.4-2.4,1.1v9.5c.7.4,1.4.5,2,.5,2.7,0,3.7-3,3.7-5.9h0Z"/>
    <path class="st0" d="M128.9,17.8c0-5.3,3.7-7.8,8-7.8s8,2.6,8,7.8-3.8,8-8,8-8-2.7-8-8ZM139.9,17.8c0-3.3-.9-6.6-3.1-6.6s-3,3.4-3,6.6.8,6.8,3,6.8,3.1-3.5,3.1-6.8Z"/>
    <path class="st0" d="M145.9,17.8c0-5.3,3.7-7.8,8-7.8s8,2.6,8,7.8-3.8,8-8,8-8-2.7-8-8ZM157,17.8c0-3.3-.9-6.6-3.1-6.6s-3,3.4-3,6.6.8,6.8,3,6.8,3.1-3.5,3.1-6.8Z"/>
    <path class="st0" d="M168,20.7c0,2.1.7,4.3.8,4.7h0c0,.1-6,.1-6,.1h0c0-.5.8-2.7.8-4.8v-12.6c0-2.1-.8-4.2-.9-4.6h0c0,0,5.3-.7,5.3-.7v18h0ZM178.6,25.4h0c0,.1-5.2.1-5.2.1l-4.9-8.1h0l3.4-3c1.9-1.7,1.3-3.7,1.1-4.2v-.2h5.6v.2l-6.1,5.3,6.3,9.8h-.2Z"/>
  </g>
</svg>