<?xml version="1.0" encoding="UTF-8"?> <svg xmlns="http://www.w3.org/2000/svg" id="Layer_2" viewBox="0 0 729.35 230.9"><defs><style>.cls-1{fill:#139753;}.cls-1,.cls-2{stroke-width:0px;}.cls-2{fill:#f5a6b4;}</style></defs><g id="Layer_1-2"><path class="cls-2" d="M717.86,140.4h3.36c.93,0,1.66.26,2.14.74.41.41.63.99.63,1.68v.02c0,1.18-.64,1.93-1.57,2.28l1.79,2.62h-1.89l-1.57-2.35h-1.27v2.35h-1.61v-7.34ZM721.11,143.96c.79,0,1.24-.42,1.24-1.04v-.02c0-.69-.48-1.05-1.27-1.05h-1.6v2.11h1.64Z"></path><path class="cls-2" d="M720.68,152.63c-4.78,0-8.67-3.89-8.67-8.67s3.89-8.67,8.67-8.67,8.67,3.89,8.67,8.67-3.89,8.67-8.67,8.67ZM720.68,137.13c-3.76,0-6.82,3.06-6.82,6.83s3.06,6.82,6.82,6.82,6.82-3.06,6.82-6.82-3.06-6.83-6.82-6.83Z"></path><path class="cls-2" d="M387.02,94.13c-11.05,12.21-32.51,26.5-40.82,24.96-19.68-3.64-23.51.05-33.83,1.43-15.82,2.11-20.65-7.6-20.65-7.6,0,0-22.53-39.8-74.45-13.97,0,0,25.54-30.49,67.19-24.85,41.65,5.65,51.76-16.51,89.25-20.58,37.49-4.07,16.82,3.09,16.82,3.09,0,0,4.89,28.23-3.52,37.52Z"></path><path class="cls-1" d="M439.64,228.66s-10.75-.43-15.88-15.14c-5.13-14.71-10.69-55-10.69-55,1-16.52,3.94-32.97,3.01-49.4-.06-.98-.2-2.04-.39-3.14,0,0-.54-16.03-.91-16.69-.1-.26-.21-.5-.31-.74.64-1.07,1.4-2.77,1.08-4.36,2.75-3.11,4.64-7.04,6.55-10.58.27-.49.66-1.42.89-1.93.3-.67.83-1.32.98-2.05.14-.7-.27-1.11-.66-1.66-2.7-3.78-6.11-9.18-7.22-13.72,0-.03-.02-.06-.02-.09-.12-.51-.25-1-.39-1.46-.05-.16-.1-.31-.15-.46-.09-.29-.19-.59-.29-.86-.06-.17-.13-.33-.2-.49-.1-.24-.2-.48-.3-.7-.07-.16-.15-.31-.23-.47-.1-.21-.21-.41-.32-.61-.08-.14-.16-.29-.25-.42-.11-.19-.23-.37-.35-.54-.09-.13-.17-.26-.26-.38-.13-.17-.26-.34-.39-.5-.09-.11-.17-.22-.26-.32-.15-.17-.3-.33-.45-.49-.08-.08-.16-.17-.24-.25-.22-.21-.44-.41-.66-.61-.02-.02-.04-.04-.06-.05-1.53-1.3-3.28-2.2-5.14-3.13-.09-.07-.18-.13-.27-.18-.49-.26-1.1-.63-1.65-.93-1.86-1.13-4.41-2.91-4.56-4.08-.17-1.32-.1-3.17.07-4.73l.54-1.09c1.15-1.18,1.62-2.24,1.91-3.48,3.24-1.65,6.2-6.77,6.44-10.28.21-3.05-.63-6.06-1.56-8.97-2.07-6.53-9.9-10.05-16.37-8.17-7.9,2.29-11.75,8.54-15.83,15.15l-1.02.7c-2.46.44-5.6,1.29-10.33,3.74-5.57,2.88-5.63,6.42-5.55,7.52,1.37-6.94,9.25-7.03,13.45-7.01-4.54,5.8-10.1,10.08-16.65,10.16.91.27,1.82.46,2.73.59-.07.03-.15.06-.22.09-.05.02-.11.04-.16.07-3.97,1.59-7.71,3.14-10.19,5.5-1.64,1.57-2.48,4.21-.79,6.54-1.27-3.3,2.74-4.49,8.63-5.13-1.24.87-2.06,1.96-2.18,3.28,1.46-3.44,4.96-3.04,9.28-3.85,3.18-.21,6.5-.44,9.61-.83.43-.05.84-.12,1.24-.19.12-.02.24-.05.37-.07.27-.05.55-.11.81-.17.13-.03.26-.06.39-.1.25-.06.5-.13.75-.2.12-.03.23-.07.34-.1.26-.08.51-.16.76-.24.09-.03.17-.06.26-.09.29-.1.58-.2.86-.3.03-.01.07-.02.1-.04,3.26-1.21,6.08-2.77,9.93-3.54-.03,1.43-.2,2.71-.49,3.23-.61,1.08-3.17,2.38-5.02,3.21-.46.17-.87.34-1.26.5-1.34.16-3.3.39-5.32.96-.07.01-.1.03-.14.04-.44.13-.87.26-1.31.43-.02,0-.03.01-.05.02-.41.15-.82.33-1.21.52-.08.04-.15.07-.22.11-.39.2-.78.42-1.14.66-.07.05-.14.1-.22.15-.38.26-.74.54-1.08.86-2.7,2.55-3.4,5.09-4.48,7.31-.89,1.83-3.1,3.63-6.2,6.86-2.06,2.15-3.9,4.5-5.82,6.76-1.35,1.59-4.37,3.51-3.75,5.71.06.21.13.42.21.64.01.03.02.06.03.09.47,1.23,1.27,2.51,2.28,3.33,0,.02-.02.04-.02.06,2.16,2.16,10.08,8.95,22.84,15.53,0,0,.1,1.85,1.34,2.88.83.69,2.35,1.79,3.63,2.35-.03.11.54.38,1.55.77-1.31,2.42-2.5,4.77-3.03,6.21-3.33,9.09-7.79,36.63-7.79,37.92l-.72,10.52c0,1.43-.42,3.96-1.32,5.06-2.75,3.38-5.06,5.72-8.34,12.1-.62,1.22-3.89,7.79-6.92,29.41-3.03,21.63-9.95,34.68-9.95,34.68h12.98l-.43-10.45,1.3-2.6-.43-6.06s7.79-21.69,13.84-30.74c5.14-7.69,6.23-18.21,6.44-21.2.04-.56.19-1.1.44-1.6l6.98-13.93,11.66-24.22,4.94,27.24s1.44,6.17,1.54,11.78c.06,3.29-1.75,5.31-1.76,10.87-.02,11,5.23,14.72,8.53,24.94,1.45,4.5,5.95,12.71,4.79,20.89-1.62,11.45.56,15.09.56,15.09h26.99l-2.09-2.23ZM409.74,73.86c1.89-3.22,2.42-5.56,2.47-7.15.19-.14.37-.28.55-.43.61.7,1.36,1.52,2.2,2.28-.09.21-.29,7.64-3.11,11.45-.46-.09-1.52-.06-2.45.7-.05-.09-.11-.17-.17-.26-1.12-1.9-1.19-3.68.5-6.58ZM378.31,83.94s-4.42-2.26-8.13-6.38c-3.7-4.12-5.66-7.92-8.64-9.88h0s.04-.02.08-.05c.03-.02.08-.05.13-.08.03-.02.06-.04.11-.06.06-.04.13-.08.21-.13.05-.03.1-.06.15-.1.08-.05.18-.12.28-.18.07-.04.13-.08.2-.13.1-.07.22-.14.33-.22.09-.06.17-.12.26-.18.12-.08.25-.17.39-.27.1-.07.2-.14.31-.22.14-.1.29-.2.44-.31.12-.08.24-.17.36-.26.15-.11.31-.23.48-.36.13-.1.27-.21.41-.32.16-.13.33-.25.5-.39.15-.12.31-.25.47-.38.17-.14.34-.28.52-.42.17-.14.34-.29.52-.43.18-.15.36-.3.54-.46.19-.16.38-.33.57-.5.18-.16.37-.32.55-.49.21-.18.42-.38.63-.57.18-.17.36-.33.55-.51.22-.21.45-.43.68-.65.18-.18.36-.35.55-.53.25-.24.5-.5.75-.75.17-.18.34-.34.52-.52.3-.31.61-.64.91-.97.13-.14.25-.27.38-.41,0,0,0,0,0,0,0,0,0,0,0,0,2.86,8.5,11.04,15.36,11.4,23.41.12,2.72-.34,4.47-1.02,5.82-.24-.21-.49-.41-.75-.61-.22-.94-.52-1.58-1-1.73-1.58-.5-3.39-.43-4.65.22Z"></path><path class="cls-1" d="M17.37,227.64v-2.28h12.87v-83.19h-11.7c-3.43,0-6.21.56-8.34,1.67-2.13,1.11-3.76,2.71-4.91,4.8-1.15,2.09-1.93,4.61-2.34,7.58-.41,2.96-.61,6.3-.61,10H0v-26.33h71.6v26.33h-2.28c0-3.71-.21-7.04-.64-10-.43-2.96-1.22-5.49-2.37-7.58-1.15-2.09-2.79-3.69-4.91-4.8-2.13-1.11-4.91-1.67-8.34-1.67h-11.7v83.19h12.87v2.28H17.37Z"></path><path class="cls-1" d="M159.71,139.92h-24.04v2.28h9.2v58.53c.07.75,1.02,13.81-8.94,20.99-5.59,4.03-11.62,4.05-13.84,3.95-2.42,0-9.14-.29-12.89-4.53-.77-.87-1.48-1.97-1.64-2.23-1.46-2.44-2.48-5.3-3.04-8.6-.57-3.29-.85-6.87-.85-10.73v-57.39h11.7v-2.28h-33.35v2.28h10.47v58.56c0,5.05.59,9.4,1.76,13.05.23.71,2,5.19,5.29,8.83,8.61,9.55,23.36,8.3,25.29,8.1,8.06-.5,14.23-3.01,18.34-7.46,4.59-4.98,6.92-12.57,6.92-22.54v-58.53h9.62v-2.28Z"></path><path class="cls-1" d="M191.82,183.53v-1.35h17.55c3.74,0,6.92-.77,9.54-2.31,2.61-1.54,4.61-3.79,6-6.76,1.38-2.96,2.08-6.57,2.08-10.82s-.69-7.88-2.08-10.88c-1.38-3-3.38-5.29-6-6.87-2.61-1.58-5.79-2.37-9.54-2.37h-38.61v-2.28h38.61c5.89,0,11.03.81,15.42,2.43,4.39,1.62,7.79,4.09,10.21,7.4s3.63,7.51,3.63,12.58-1.13,9.17-3.39,12.29-5.57,5.39-9.92,6.82-9.66,2.13-15.94,2.13h-17.55ZM170.76,227.64v-2.28h36.91v2.28h-36.91ZM183.63,226.41v-84.94h11.11v84.94h-11.11ZM238.04,228.23c-3.39,0-6.04-.61-7.93-1.84s-3.27-2.89-4.12-4.97c-.86-2.09-1.4-4.43-1.61-7.02-.21-2.59-.34-5.27-.38-8.04-.04-2.77-.2-5.45-.47-8.04-.27-2.59-.88-4.93-1.81-7.02-.94-2.09-2.43-3.74-4.47-4.97-2.05-1.23-4.87-1.84-8.45-1.84h-16.96v-1.23h19.3c5.58,0,10.01.77,13.31,2.31,3.29,1.54,5.78,3.57,7.46,6.08,1.68,2.52,2.81,5.27,3.39,8.28.58,3,.91,6.02.96,9.04.06,3.02.16,5.79.29,8.31s.56,4.53,1.29,6.05c.72,1.52,2.06,2.28,4.01,2.28,1.21,0,2.3-.13,3.28-.38s1.85-.58,2.63-.96l.82,2.16c-.94.51-2.34.94-4.21,1.29-1.87.35-3.98.53-6.32.53Z"></path><path class="cls-1" d="M258.69,139.89v2.28h10.53v83.19h-10.53v2.28h33.34v-2.28h-11.64v-39.38s7.88,0,7.9,0c3.37,0,8.07,1.17,10.27,3.93,1.9,2.4,1.63,5.4,1.49,6.38h2.34v-23.93h-2.34c.13.95.43,3.97-1.49,6.2-2.66,3.09-7.12,3.36-10.89,3.38-2.38.01-4.77,0-7.15,0,0,0-.12,0-.12,0v-39.76h18.66c4.56,0,8.2.94,10.91,2.81,2.71,1.87,4.67,4.45,5.88,7.72,1.21,3.28,1.81,7,1.81,11.17h2.28v-23.98h-61.25Z"></path><polygon class="cls-2" points="528.68 142.17 541.55 142.17 541.55 225.36 528.68 225.36 528.68 227.64 566.71 227.64 566.71 225.36 552.67 225.36 552.67 142.17 566.71 142.17 566.71 139.89 528.68 139.89 528.68 142.17"></polygon><path class="cls-2" d="M651.82,225.21c-.98.25-2.07.38-3.28.38-1.95,0-3.29-.76-4.01-2.28-.72-1.52-1.15-3.54-1.29-6.05-.14-2.52-.23-5.28-.29-8.31-.06-3.02-.38-6.03-.96-9.04-.59-3-1.72-5.76-3.39-8.28s-4.16-4.54-7.46-6.08c-2.6-1.21-5.92-1.94-9.93-2.2,4.09-.29,7.7-.94,10.81-1.95,4.35-1.42,7.65-3.7,9.92-6.82,2.26-3.12,3.39-7.21,3.39-12.29s-1.21-9.26-3.63-12.58-5.82-5.78-10.21-7.4c-4.39-1.62-9.53-2.43-15.42-2.43h-38.61v2.28h12.87v83.19h-12.87v2.28h36.91v-2.28h-12.93v-40.89h14.04c3.59,0,6.41.61,8.45,1.84,2.05,1.23,3.54,2.89,4.47,4.97s1.54,4.43,1.81,7.02c.27,2.59.43,5.28.47,8.04.04,2.77.17,5.45.38,8.04.21,2.59.75,4.93,1.61,7.02.86,2.09,2.23,3.74,4.12,4.97,1.89,1.23,4.53,1.84,7.93,1.84,2.34,0,4.45-.17,6.32-.53s3.28-.78,4.21-1.29l-.82-2.16c-.78.39-1.66.71-2.63.96ZM616.08,142.17c3.74,0,6.92.79,9.54,2.37,2.61,1.58,4.61,3.87,6,6.87,1.38,3,2.08,6.63,2.08,10.88s-.69,7.86-2.08,10.82-3.38,5.22-6,6.76c-2.61,1.54-5.79,2.31-9.54,2.31h-14.62v-40.01h14.62Z"></path><path class="cls-2" d="M725.05,201.39c.02,1.21.02,3.02-.14,5.22-.3,4.2-.45,6.3-1.55,8.75-.65,1.45-1.84,4-4.66,5.79-2.59,1.64-5.19,1.77-6.4,1.76h-25.2v-80.74h10.47v-2.28h-32.18v2.28h10.53v83.19h-10.53v2.28h63v-26.33c-1.12.03-2.23.05-3.35.08Z"></path><path class="cls-2" d="M487.15,195.58h12.34v17.43c-.46,1.65-1.7,5.09-4.97,7.69-2.46,1.96-4.95,2.55-6.78,2.99-3.74.89-6.75.55-8.89.28-2.09-.26-6.04-.79-10.45-3.25-1.7-.95-5.62-3.2-8.54-7.63-2.21-3.37-2.83-6.87-3.8-13.75-.72-5.09-1.08-10.29-1.08-15.59,0-4.41.12-9.28,1.46-15.5,1.06-4.94,1.86-8.48,4.48-12.47,3.86-5.89,8.49-7.87,8.96-8.05,1.2-.45,2.63-.87,2.63-.87.05-.02.1-.03.12-.04,3.33-.99,5.94-1.37,6.99-1.49,1.41-.17,3.79-.45,6.92-.26,0,0,3.52.22,7.34,1.23,1.02.27,2.02.59,2.02.59.38.12.73.24.77.26,0,0,.38.13.73.26.26.1,4.83,2.01,7.77,7.12,2.2,3.84,2.38,7.54,2.34,9.33h2.34v-23.98h-2.05l-4.8,5.03c-.13-.13-.35-.33-.71-.64-.52-.45-1.03-.86-1.15-.96-3.89-2.98-11.08-4.16-11.08-4.16-3.66-.6-6.82-.6-9.32-.43-5.26.06-10.1,1.01-14.52,2.84-.28.11-.67.27-1.13.48-.97.43-3.65,1.67-6.71,3.95-2.13,1.59-4.09,3.41-5.87,5.47-3.51,4.06-6.21,8.82-8.1,14.3-1.89,5.48-2.84,11.48-2.84,17.99,0,8.7,1.47,16.44,4.42,23.22,2.16,4.98,5.06,9.18,8.69,12.6,1.69,1.59,3.23,2.71,4.24,3.4,8.41,5.73,17.31,6.22,20.34,6.35,4.02.17,9.33.4,15.53-2.26,2-.86,8.9-4.08,13.69-11.72,1.71-2.72,2.67-5.25,3.23-7.03v-12.75h7.08v-2.57h-31.65v2.57Z"></path></g></svg> 